<?xml version="1.0" encoding="utf-8"?>
<svg xmlns="http://www.w3.org/2000/svg" height="512pt" version="1.1" viewBox="0 0 512 512" width="512pt">
<defs>
  <clipPath id="logo-circle">
    <circle cx="256" cy="256" r="246" />
  </clipPath>
</defs>
<g clip-path="url(#logo-circle)">
<path d="M 0.00 0.00 L 512.00 0.00 L 512.00 512.00 L 362.21 512.00 C 370.08 506.97 379.51 505.58 388.00 501.96 C 392.16 500.10 395.21 496.58 398.85 493.93 C 402.89 490.98 406.64 487.66 410.51 484.49 C 417.36 479.04 422.71 472.00 429.41 466.39 C 438.09 459.03 446.90 451.09 451.65 440.52 C 453.86 436.33 455.95 432.08 457.72 427.68 C 460.50 420.63 465.90 415.14 469.70 408.67 C 477.09 396.85 483.56 384.41 488.24 371.27 C 489.86 366.02 491.68 360.84 493.77 355.75 C 495.61 351.46 493.99 346.68 495.28 342.29 C 499.24 329.25 502.55 315.81 502.54 302.09 C 502.49 300.16 502.20 298.26 501.86 296.37 C 501.70 286.91 503.04 277.47 502.38 267.99 C 501.40 256.70 501.59 245.22 498.78 234.16 C 497.16 228.13 496.51 221.78 493.75 216.11 C 493.31 215.06 492.86 214.02 492.44 212.98 C 491.92 209.28 491.98 205.28 489.94 202.00 C 488.40 199.47 486.48 197.19 484.68 194.84 C 484.44 195.43 483.96 196.60 483.72 197.18 C 483.47 195.68 483.26 194.16 483.09 192.65 C 484.10 189.20 484.10 185.54 482.65 182.22 C 474.17 160.55 464.62 138.93 450.09 120.56 C 447.83 117.28 445.59 113.97 443.01 110.94 C 437.18 104.14 431.96 96.77 425.35 90.68 C 419.57 85.46 414.45 79.56 408.59 74.43 C 403.80 70.26 399.35 65.51 393.53 62.74 C 385.10 55.90 376.15 49.70 366.84 44.10 C 358.79 38.88 350.50 33.91 341.53 30.42 C 335.88 28.31 330.76 24.95 324.98 23.16 C 317.56 20.85 310.35 17.85 302.72 16.28 C 295.86 14.85 289.06 13.01 282.07 12.31 C 273.10 11.03 264.02 11.44 255.00 11.30 C 243.33 11.50 231.59 10.89 219.98 12.35 C 208.44 13.10 197.42 16.81 186.15 19.07 C 181.26 20.03 176.61 21.84 172.03 23.77 C 161.18 27.38 150.87 32.41 140.74 37.67 C 132.51 41.36 125.48 47.09 117.87 51.83 C 105.51 59.86 94.81 70.09 83.91 79.92 C 77.53 86.89 70.90 93.67 65.30 101.31 C 61.51 105.38 58.57 110.10 56.15 115.09 C 50.14 119.70 47.00 126.74 43.31 133.13 C 40.22 139.46 36.38 145.49 34.40 152.30 C 33.43 155.38 32.74 158.55 31.62 161.58 C 29.91 166.23 26.64 170.11 25.04 174.81 C 23.58 179.11 22.45 183.51 20.86 187.77 C 18.91 192.90 19.65 198.51 18.32 203.78 C 13.07 208.39 11.55 215.62 9.98 222.12 C 8.68 226.86 11.06 231.74 9.52 236.44 C 8.65 239.56 8.20 242.77 7.82 245.98 C 7.57 250.48 3.52 253.61 3.26 258.12 C 2.96 261.53 1.92 264.81 0.00 267.66 L 0.00 0.00 Z" fill="transparent" opacity="1.00" stroke="transparent" stroke-width="0.25"/>
<path d="M 186.15 19.07 C 197.42 16.81 208.44 13.10 219.98 12.35 C 231.59 10.89 243.33 11.50 255.00 11.30 C 264.02 11.44 273.10 11.03 282.07 12.31 C 289.06 13.01 295.86 14.85 302.72 16.28 C 310.35 17.85 317.56 20.85 324.98 23.16 C 330.76 24.95 335.88 28.31 341.53 30.42 C 350.50 33.91 358.79 38.88 366.84 44.10 C 376.15 49.70 385.10 55.90 393.53 62.74 C 393.06 63.09 392.12 63.80 391.64 64.16 C 387.03 61.17 382.40 58.21 377.77 55.24 C 371.53 51.23 364.69 48.30 358.12 44.90 C 335.01 32.92 309.35 26.56 283.59 23.66 C 271.44 22.37 259.20 22.25 247.00 22.68 C 233.08 24.00 219.07 25.27 205.50 28.79 C 185.13 34.21 165.24 41.70 146.73 51.81 C 137.66 57.69 128.14 62.90 119.68 69.67 C 114.70 73.70 109.39 77.35 104.89 81.94 C 97.25 89.63 89.25 96.99 82.31 105.34 C 68.52 120.89 57.66 138.81 48.66 157.49 C 43.77 168.63 39.49 180.03 35.77 191.61 C 30.38 210.61 26.82 230.20 26.08 249.96 C 25.22 256.90 26.08 263.85 26.47 270.78 C 26.45 273.91 26.23 277.03 25.97 280.15 C 24.16 277.86 22.39 275.52 20.83 273.04 C 19.46 259.49 18.32 245.91 18.49 232.28 C 18.54 227.50 18.35 222.72 18.74 217.96 C 19.24 212.10 22.12 206.74 22.49 200.85 C 23.05 188.26 27.85 176.37 32.96 165.01 C 35.49 159.18 36.01 152.69 38.86 146.98 C 44.27 136.16 50.62 125.84 56.15 115.09 C 58.57 110.10 61.51 105.38 65.30 101.31 C 70.90 93.67 77.53 86.89 83.91 79.92 C 94.81 70.09 105.51 59.86 117.87 51.83 C 125.48 47.09 132.51 41.36 140.74 37.67 C 150.87 32.41 161.18 27.38 172.03 23.77 C 176.61 21.84 181.26 20.03 186.15 19.07 Z" fill="#04ae9c" opacity="1.00" stroke="#04ae9c" stroke-width="0.25"/>
<path d="M 205.50 28.79 C 219.07 25.27 233.08 24.00 247.00 22.68 C 259.20 22.25 271.44 22.37 283.59 23.66 C 309.35 26.56 335.01 32.92 358.12 44.90 C 364.69 48.30 371.53 51.23 377.77 55.24 C 382.40 58.21 387.03 61.17 391.64 64.16 C 405.18 74.89 418.28 86.28 429.71 99.28 C 436.46 106.89 442.70 114.93 448.92 122.98 C 455.80 132.79 461.91 143.16 467.08 153.97 C 473.43 166.41 478.89 179.32 483.09 192.65 C 483.26 194.16 483.47 195.68 483.72 197.18 C 484.56 202.23 485.80 207.20 486.76 212.22 C 489.40 223.62 490.42 235.33 490.66 247.01 C 490.62 260.10 491.10 273.28 488.96 286.26 C 486.66 299.09 484.66 312.02 480.76 324.50 C 473.65 346.71 464.03 368.31 450.54 387.43 C 443.31 398.63 434.82 408.98 425.53 418.54 C 419.63 424.30 414.11 430.50 407.57 435.56 C 392.20 448.51 375.51 460.01 357.13 468.27 C 345.67 474.26 333.34 478.26 321.03 482.09 C 305.41 486.69 289.25 489.37 273.01 490.36 C 255.79 490.76 238.44 490.62 221.45 487.46 C 212.72 485.67 203.96 483.96 195.45 481.33 C 179.45 476.34 163.49 470.73 148.98 462.22 C 138.77 457.00 129.45 450.31 119.99 443.89 C 117.69 442.11 115.34 440.39 113.15 438.49 C 100.37 426.73 87.69 414.77 76.80 401.21 C 61.82 382.26 49.86 360.93 41.77 338.15 C 38.10 329.18 35.72 319.78 33.01 310.49 C 32.49 308.32 32.06 306.13 31.62 303.95 C 30.66 299.40 29.72 294.84 28.92 290.26 C 28.47 283.72 27.18 277.29 26.47 270.78 C 26.08 263.85 25.22 256.90 26.08 249.96 C 26.82 230.20 30.38 210.61 35.77 191.61 C 39.49 180.03 43.77 168.63 48.66 157.49 C 57.66 138.81 68.52 120.89 82.31 105.34 C 89.25 96.99 97.25 89.63 104.89 81.94 C 109.39 77.35 114.70 73.70 119.68 69.67 C 128.14 62.90 137.66 57.69 146.73 51.81 C 165.24 41.70 185.13 34.21 205.50 28.79 Z" fill="#fefefe" opacity="1.00" stroke="#fefefe" stroke-width="0.25"/>
<path d="M 393.53 62.74 C 399.35 65.51 403.80 70.26 408.59 74.43 C 414.45 79.56 419.57 85.46 425.35 90.68 C 431.96 96.77 437.18 104.14 443.01 110.94 C 445.59 113.97 447.83 117.28 450.09 120.56 C 449.79 121.16 449.21 122.38 448.92 122.98 C 442.70 114.93 436.46 106.89 429.71 99.28 C 418.28 86.28 405.18 74.89 391.64 64.16 C 392.12 63.80 393.06 63.09 393.53 62.74 Z" fill="#acd2cd" opacity="1.00" stroke="#acd2cd" stroke-width="0.25"/>
<path d="M 43.31 133.13 C 47.00 126.74 50.14 119.70 56.15 115.09 C 50.62 125.84 44.27 136.16 38.86 146.98 C 36.01 152.69 35.49 159.18 32.96 165.01 C 27.85 176.37 23.05 188.26 22.49 200.85 C 22.12 206.74 19.24 212.10 18.74 217.96 C 18.35 222.72 18.54 227.50 18.49 232.28 C 18.14 226.42 18.46 220.54 17.84 214.70 C 17.68 213.00 17.38 211.31 17.13 209.62 L 17.27 208.78 C 17.64 207.12 17.99 205.45 18.32 203.78 C 19.65 198.51 18.91 192.90 20.86 187.77 C 22.45 183.51 23.58 179.11 25.04 174.81 C 26.64 170.11 29.91 166.23 31.62 161.58 C 32.74 158.55 33.43 155.38 34.40 152.30 C 36.38 145.49 40.22 139.46 43.31 133.13 Z" fill="#8cc3c2" opacity="1.00" stroke="#8cc3c2" stroke-width="0.25"/>
<path d="M 448.92 122.98 C 449.21 122.38 449.79 121.16 450.09 120.56 C 464.62 138.93 474.17 160.55 482.65 182.22 C 484.10 185.54 484.10 189.20 483.09 192.65 C 478.89 179.32 473.43 166.41 467.08 153.97 C 461.91 143.16 455.80 132.79 448.92 122.98 Z" fill="#a7bfbb" opacity="1.00" stroke="#a7bfbb" stroke-width="0.25"/>
<path d="M 173.78 163.83 C 174.06 163.53 174.64 162.92 174.93 162.61 C 184.56 162.48 194.18 162.58 203.81 162.57 L 203.40 163.47 C 197.59 176.50 193.49 190.24 189.42 203.89 C 175.79 240.35 161.89 276.71 148.11 313.12 C 144.42 322.55 140.59 331.93 137.36 341.54 C 126.35 342.81 115.23 341.98 104.17 342.25 C 109.37 327.91 115.80 314.04 120.94 299.68 C 138.60 254.42 156.08 209.08 173.78 163.83 Z" fill="#010101" opacity="1.00" stroke="#010101" stroke-width="0.25"/>
<path d="M 252.63 162.64 C 278.42 162.58 304.21 162.56 330.00 162.63 C 345.13 162.71 360.94 167.19 371.80 178.20 C 382.50 189.22 388.84 204.59 388.50 220.00 C 389.00 237.00 381.67 254.58 368.07 265.09 C 362.90 269.40 356.40 271.36 350.27 273.80 C 360.17 289.52 370.12 305.20 379.93 320.98 C 384.25 328.08 389.23 334.80 393.06 342.19 C 382.03 342.44 370.99 342.33 359.96 342.28 C 357.89 342.43 356.96 340.24 355.93 338.87 C 343.04 319.01 331.33 298.42 318.71 278.40 C 306.97 278.20 295.22 278.26 283.48 278.39 C 283.02 296.88 283.44 315.39 283.20 333.88 C 280.69 330.83 279.82 326.88 278.45 323.27 C 271.59 305.40 264.29 287.70 257.02 270.00 C 255.29 265.08 252.08 260.43 252.55 255.00 C 252.53 224.22 252.47 193.43 252.63 162.64 Z" fill="#010101" opacity="1.00" stroke="#010101" stroke-width="0.25"/>
<path d="M 203.40 163.47 C 204.38 164.49 205.45 165.49 205.99 166.84 C 212.30 183.01 218.92 199.05 225.79 214.99 C 236.69 242.11 247.76 269.17 258.91 296.19 C 265.03 309.89 270.61 323.82 276.26 337.72 C 276.82 339.17 277.23 340.68 277.62 342.19 C 269.08 342.42 260.54 342.22 252.00 342.33 C 249.48 342.39 246.99 342.04 244.53 341.56 C 239.94 328.69 234.14 316.32 229.40 303.52 C 227.30 303.04 225.18 302.60 223.01 302.63 C 202.74 302.64 182.47 302.42 162.20 302.70 C 162.86 293.44 167.98 285.29 170.39 276.45 C 186.01 275.99 201.69 276.93 217.28 275.88 C 214.20 263.54 208.08 252.25 203.75 240.35 C 200.84 233.41 198.91 226.10 195.70 219.29 C 193.28 214.29 192.20 208.73 189.42 203.89 C 193.49 190.24 197.59 176.50 203.40 163.47 Z" fill="#02ae9e" opacity="1.00" stroke="#02ae9e" stroke-width="0.25"/>
<path d="M 283.31 191.35 C 298.88 191.32 314.46 191.20 330.04 191.28 C 337.08 191.08 344.31 193.55 349.34 198.57 C 351.96 201.40 354.10 204.70 355.63 208.24 C 357.81 213.90 357.51 220.08 357.21 226.02 C 356.26 239.62 343.16 249.84 330.03 250.29 C 314.55 250.40 299.07 250.31 283.60 250.58 C 282.10 246.55 283.00 242.19 282.81 238.01 C 283.57 222.47 283.04 206.90 283.31 191.35 Z" fill="#ffffff" opacity="1.00" stroke="#ffffff" stroke-width="0.25"/>
<path d="M 483.72 197.18 C 483.96 196.60 484.44 195.43 484.68 194.84 C 486.48 197.19 488.40 199.47 489.94 202.00 C 491.98 205.28 491.92 209.28 492.44 212.98 C 490.99 209.67 489.55 206.28 487.04 203.61 C 486.78 206.47 486.63 209.35 486.76 212.22 C 485.80 207.20 484.56 202.23 483.72 197.18 Z" fill="#79c3bd" opacity="1.00" stroke="#79c3bd" stroke-width="0.25"/>
<path d="M 9.98 222.12 C 11.55 215.62 13.07 208.39 18.32 203.78 C 17.99 205.45 17.64 207.12 17.27 208.78 C 14.64 213.25 13.29 218.31 12.55 223.40 C 12.01 227.57 12.60 231.79 12.02 235.95 C 9.32 241.54 10.55 247.90 8.83 253.74 C 7.15 259.62 8.67 265.78 7.56 271.73 C 3.50 291.04 4.25 311.24 8.64 330.42 C 9.60 335.60 9.83 340.89 10.98 346.04 C 12.26 352.06 16.35 356.92 18.24 362.71 C 19.59 366.75 21.43 370.60 23.76 374.17 C 27.30 379.66 28.78 386.18 32.30 391.69 C 35.42 396.68 37.29 402.39 40.90 407.08 C 45.58 413.07 49.85 419.39 54.93 425.06 C 59.48 430.88 64.87 436.01 68.77 442.32 C 75.45 450.55 82.48 458.53 89.81 466.20 C 94.94 470.75 99.14 476.32 104.87 480.18 C 108.92 483.06 112.26 486.83 116.46 489.52 C 129.17 497.64 142.09 505.51 155.72 512.00 L 132.38 512.00 C 126.90 509.71 123.55 504.51 118.55 501.53 C 113.20 498.72 109.69 493.58 104.54 490.46 C 99.60 484.67 93.10 480.61 87.85 475.14 C 80.29 468.72 73.01 461.78 67.40 453.55 C 65.12 450.55 62.00 448.32 59.83 445.23 C 57.48 441.90 55.30 438.45 52.78 435.25 C 49.64 431.06 45.55 427.61 43.03 422.95 C 39.93 417.23 35.21 412.62 31.98 406.97 C 26.10 396.64 20.52 386.05 16.63 374.79 C 16.02 375.01 15.41 375.24 14.80 375.48 C 11.21 369.69 10.48 362.70 7.09 356.84 C 1.08 347.96 4.89 336.14 0.00 326.87 L 0.00 267.66 C 1.92 264.81 2.96 261.53 3.26 258.12 C 3.52 253.61 7.57 250.48 7.82 245.98 C 8.20 242.77 8.65 239.56 9.52 236.44 C 11.06 231.74 8.68 226.86 9.98 222.12 Z" fill="#f7f7f7" opacity="1.00" stroke="#f7f7f7" stroke-width="0.25"/>
<path d="M 487.04 203.61 C 489.55 206.28 490.99 209.67 492.44 212.98 C 492.86 214.02 493.31 215.06 493.75 216.11 C 493.92 221.24 494.01 226.45 495.69 231.36 C 500.07 244.13 497.72 257.81 499.21 270.98 C 499.87 277.33 498.51 283.64 498.24 289.98 C 497.91 298.40 496.09 306.70 496.30 315.15 C 496.24 315.59 496.13 316.46 496.07 316.90 C 492.31 329.17 487.09 341.25 486.12 354.18 C 484.00 360.76 481.67 367.32 478.48 373.47 C 475.69 378.83 472.72 384.12 470.33 389.68 C 464.01 398.41 458.64 407.86 451.36 415.86 C 447.66 417.40 445.58 420.77 444.08 424.30 C 443.18 425.21 442.27 426.13 441.36 427.04 C 436.74 428.93 434.11 433.33 430.41 436.42 C 425.38 440.77 420.07 445.06 416.78 450.97 C 409.80 457.81 401.35 462.85 393.40 468.46 C 364.65 485.98 332.57 498.62 299.03 502.78 C 286.22 504.40 273.21 505.20 260.34 503.80 C 253.09 499.93 244.65 500.63 236.82 499.02 C 229.86 497.58 222.59 497.04 216.13 493.85 C 217.86 491.69 219.65 489.56 221.45 487.46 C 238.44 490.62 255.79 490.76 273.01 490.36 C 289.25 489.37 305.41 486.69 321.03 482.09 C 333.34 478.26 345.67 474.26 357.13 468.27 C 375.51 460.01 392.20 448.51 407.57 435.56 C 414.11 430.50 419.63 424.30 425.53 418.54 C 434.82 408.98 443.31 398.63 450.54 387.43 C 464.03 368.31 473.65 346.71 480.76 324.50 C 484.66 312.02 486.66 299.09 488.96 286.26 C 491.10 273.28 490.62 260.10 490.66 247.01 C 490.42 235.33 489.40 223.62 486.76 212.22 C 486.63 209.35 486.78 206.47 487.04 203.61 Z" fill="#04ad9c" opacity="1.00" stroke="#04ad9c" stroke-width="0.25"/>
<path d="M 12.55 223.40 C 13.29 218.31 14.64 213.25 17.27 208.78 L 17.13 209.62 C 16.18 214.73 14.53 219.73 14.39 224.97 C 14.21 230.35 13.69 235.72 13.55 241.11 C 13.94 252.06 14.65 263.04 17.29 273.71 C 17.22 277.89 18.06 281.98 18.88 286.05 C 19.74 290.07 17.85 293.87 16.76 297.63 C 15.25 302.31 16.57 307.22 16.76 311.99 C 17.02 319.51 18.77 326.85 19.78 334.28 C 21.14 342.94 24.81 350.99 27.83 359.16 C 29.87 364.44 33.41 368.91 36.16 373.81 C 40.16 380.87 42.57 388.84 47.92 395.10 C 53.09 402.80 58.49 410.38 64.73 417.26 C 70.94 424.13 75.90 432.02 82.20 438.80 C 86.26 443.09 89.47 448.14 93.92 452.06 C 101.71 458.94 108.44 467.07 117.18 472.83 C 125.26 478.13 132.70 484.47 141.52 488.55 C 152.28 493.78 162.44 500.38 173.89 504.09 C 181.04 507.00 188.52 509.02 195.64 512.00 L 179.43 512.00 C 175.58 510.40 171.90 508.35 167.86 507.27 C 158.49 504.87 150.09 499.92 141.65 495.37 C 131.38 490.42 122.02 483.84 112.78 477.21 C 109.13 474.57 106.27 471.04 102.95 468.02 C 95.71 461.26 87.60 455.13 82.30 446.61 C 81.00 444.64 79.41 442.90 77.78 441.21 C 73.19 436.68 70.56 430.58 65.83 426.17 C 59.12 419.78 53.15 412.64 48.14 404.85 C 43.26 399.13 38.89 392.91 36.25 385.82 C 34.39 380.14 29.77 376.03 27.47 370.59 C 23.11 359.50 16.94 349.01 14.97 337.10 C 13.95 329.67 10.56 322.63 11.01 315.01 C 11.31 306.97 9.48 299.00 10.04 290.96 C 10.24 286.88 11.21 282.90 11.77 278.87 C 12.77 272.22 11.07 265.56 11.72 258.90 C 12.43 251.25 11.16 243.58 12.02 235.95 C 12.60 231.79 12.01 227.57 12.55 223.40 Z" fill="#e1e2e3" opacity="1.00" stroke="#e1e2e3" stroke-width="0.25"/>
<path d="M 17.13 209.62 C 17.38 211.31 17.68 213.00 17.84 214.70 C 15.67 224.28 15.82 234.22 15.79 243.99 C 16.99 255.39 16.09 267.47 20.97 278.12 C 22.43 282.15 23.38 286.38 23.59 290.67 C 23.25 298.00 24.00 306.17 28.54 312.21 C 28.63 310.99 28.69 309.78 28.73 308.56 C 29.74 307.06 30.75 305.54 31.62 303.95 C 32.06 306.13 32.49 308.32 33.01 310.49 C 32.04 312.80 31.51 315.33 32.32 317.78 C 35.59 330.51 41.46 342.37 45.18 354.95 C 40.42 349.05 39.60 341.27 36.45 334.57 C 34.43 330.30 32.67 325.92 31.46 321.35 C 30.59 317.13 25.87 315.17 25.05 310.96 C 24.13 306.82 23.37 302.64 22.23 298.54 C 22.14 290.04 20.35 281.63 17.29 273.71 C 14.65 263.04 13.94 252.06 13.55 241.11 C 13.69 235.72 14.21 230.35 14.39 224.97 C 14.53 219.73 16.18 214.73 17.13 209.62 Z" fill="#9faaad" opacity="1.00" stroke="#9faaad" stroke-width="0.25"/>
<path d="M 15.79 243.99 C 15.82 234.22 15.67 224.28 17.84 214.70 C 18.46 220.54 18.14 226.42 18.49 232.28 C 18.32 245.91 19.46 259.49 20.83 273.04 C 20.90 274.73 20.90 276.42 20.97 278.12 C 16.09 267.47 16.99 255.39 15.79 243.99 Z" fill="#46706f" opacity="1.00" stroke="#46706f" stroke-width="0.25"/>
<path d="M 493.75 216.11 C 496.51 221.78 497.16 228.13 498.78 234.16 C 501.59 245.22 501.40 256.70 502.38 267.99 C 503.04 277.47 501.70 286.91 501.86 296.37 L 501.24 295.68 C 501.42 290.39 501.36 285.07 500.54 279.83 C 500.35 284.63 500.23 289.45 499.37 294.19 C 498.08 301.14 497.78 308.23 496.30 315.15 C 496.09 306.70 497.91 298.40 498.24 289.98 C 498.51 283.64 499.87 277.33 499.21 270.98 C 497.72 257.81 500.07 244.13 495.69 231.36 C 494.01 226.45 493.92 221.24 493.75 216.11 Z" fill="#40918e" opacity="1.00" stroke="#40918e" stroke-width="0.25"/>
<path d="M 8.83 253.74 C 10.55 247.90 9.32 241.54 12.02 235.95 C 11.16 243.58 12.43 251.25 11.72 258.90 C 11.07 265.56 12.77 272.22 11.77 278.87 C 11.21 282.90 10.24 286.88 10.04 290.96 C 9.48 299.00 11.31 306.97 11.01 315.01 C 10.56 322.63 13.95 329.67 14.97 337.10 C 16.94 349.01 23.11 359.50 27.47 370.59 C 29.77 376.03 34.39 380.14 36.25 385.82 C 38.89 392.91 43.26 399.13 48.14 404.85 C 53.15 412.64 59.12 419.78 65.83 426.17 C 70.56 430.58 73.19 436.68 77.78 441.21 C 79.41 442.90 81.00 444.64 82.30 446.61 C 87.60 455.13 95.71 461.26 102.95 468.02 C 106.27 471.04 109.13 474.57 112.78 477.21 C 122.02 483.84 131.38 490.42 141.65 495.37 C 150.09 499.92 158.49 504.87 167.86 507.27 C 171.90 508.35 175.58 510.40 179.43 512.00 L 155.72 512.00 C 142.09 505.51 129.17 497.64 116.46 489.52 C 112.26 486.83 108.92 483.06 104.87 480.18 C 99.14 476.32 94.94 470.75 89.81 466.20 C 82.48 458.53 75.45 450.55 68.77 442.32 C 64.87 436.01 59.48 430.88 54.93 425.06 C 49.85 419.39 45.58 413.07 40.90 407.08 C 37.29 402.39 35.42 396.68 32.30 391.69 C 28.78 386.18 27.30 379.66 23.76 374.17 C 21.43 370.60 19.59 366.75 18.24 362.71 C 16.35 356.92 12.26 352.06 10.98 346.04 C 9.83 340.89 9.60 335.60 8.64 330.42 C 4.25 311.24 3.50 291.04 7.56 271.73 C 8.67 265.78 7.15 259.62 8.83 253.74 Z" fill="#ededee" opacity="1.00" stroke="#ededee" stroke-width="0.25"/>
<path d="M 26.47 270.78 C 27.18 277.29 28.47 283.72 28.92 290.26 C 28.48 289.48 28.03 288.72 27.57 287.97 C 27.30 290.58 27.07 293.30 25.50 295.52 C 24.89 293.89 24.20 292.29 23.59 290.67 C 23.38 286.38 22.43 282.15 20.97 278.12 C 20.90 276.42 20.90 274.73 20.83 273.04 C 22.39 275.52 24.16 277.86 25.97 280.15 C 26.23 277.03 26.45 273.91 26.47 270.78 Z" fill="#53d1c2" opacity="1.00" stroke="#53d1c2" stroke-width="0.25"/>
<path d="M 17.29 273.71 C 20.35 281.63 22.14 290.04 22.23 298.54 C 21.19 302.62 20.42 306.83 20.85 311.05 C 21.11 317.24 24.31 322.76 25.15 328.84 C 25.99 334.40 26.01 340.24 28.69 345.33 C 31.36 350.45 32.46 356.33 36.02 360.98 C 37.71 363.23 38.78 365.83 39.71 368.47 C 41.29 373.12 44.88 376.74 46.52 381.38 C 47.99 385.33 50.14 388.97 52.75 392.26 C 56.49 396.93 59.09 402.42 63.11 406.88 C 66.75 410.95 69.94 415.38 73.45 419.55 C 81.46 429.19 87.51 440.62 97.46 448.53 C 100.45 450.87 103.06 453.62 105.46 456.55 C 108.62 460.43 112.81 463.23 116.67 466.34 C 128.90 476.72 143.09 484.44 157.28 491.77 C 162.90 494.92 168.50 498.17 174.56 500.43 C 186.15 504.48 197.69 508.66 209.52 512.00 L 195.64 512.00 C 188.52 509.02 181.04 507.00 173.89 504.09 C 162.44 500.38 152.28 493.78 141.52 488.55 C 132.70 484.47 125.26 478.13 117.18 472.83 C 108.44 467.07 101.71 458.94 93.92 452.06 C 89.47 448.14 86.26 443.09 82.20 438.80 C 75.90 432.02 70.94 424.13 64.73 417.26 C 58.49 410.38 53.09 402.80 47.92 395.10 C 42.57 388.84 40.16 380.87 36.16 373.81 C 33.41 368.91 29.87 364.44 27.83 359.16 C 24.81 350.99 21.14 342.94 19.78 334.28 C 18.77 326.85 17.02 319.51 16.76 311.99 C 16.57 307.22 15.25 302.31 16.76 297.63 C 17.85 293.87 19.74 290.07 18.88 286.05 C 18.06 281.98 17.22 277.89 17.29 273.71 Z" fill="#d4d5d7" opacity="1.00" stroke="#d4d5d7" stroke-width="0.25"/>
<path d="M 500.54 279.83 C 501.36 285.07 501.42 290.39 501.24 295.68 C 499.55 307.51 499.21 319.60 495.85 331.14 C 493.82 340.16 491.30 349.05 488.63 357.90 C 484.90 367.92 479.00 376.99 475.43 387.08 C 474.02 391.49 471.26 395.33 469.99 399.81 C 469.63 399.19 469.27 398.58 468.92 397.97 C 470.02 395.34 470.17 392.48 470.33 389.68 C 472.72 384.12 475.69 378.83 478.48 373.47 C 481.67 367.32 484.00 360.76 486.12 354.18 C 490.08 346.27 491.35 337.44 494.14 329.12 C 495.46 325.18 495.75 321.01 496.07 316.90 C 496.13 316.46 496.24 315.59 496.30 315.15 C 497.78 308.23 498.08 301.14 499.37 294.19 C 500.23 289.45 500.35 284.63 500.54 279.83 Z" fill="#436a68" opacity="1.00" stroke="#436a68" stroke-width="0.25"/>
<path d="M 27.57 287.97 C 28.03 288.72 28.48 289.48 28.92 290.26 C 29.72 294.84 30.66 299.40 31.62 303.95 C 30.75 305.54 29.74 307.06 28.73 308.56 C 27.66 304.21 26.59 299.86 25.50 295.52 C 27.07 293.30 27.30 290.58 27.57 287.97 Z" fill="#17ac98" opacity="1.00" stroke="#17ac98" stroke-width="0.25"/>
<path d="M 28.54 312.21 C 24.00 306.17 23.25 298.00 23.59 290.67 C 24.20 292.29 24.89 293.89 25.50 295.52 C 26.59 299.86 27.66 304.21 28.73 308.56 C 28.69 309.78 28.63 310.99 28.54 312.21 Z" fill="#598385" opacity="1.00" stroke="#598385" stroke-width="0.25"/>
<path d="M 501.24 295.68 L 501.86 296.37 C 502.20 298.26 502.49 300.16 502.54 302.09 C 502.55 315.81 499.24 329.25 495.28 342.29 C 493.99 346.68 495.61 351.46 493.77 355.75 C 491.68 360.84 489.86 366.02 488.24 371.27 C 483.56 384.41 477.09 396.85 469.70 408.67 C 465.90 415.14 460.50 420.63 457.72 427.68 C 455.95 432.08 453.86 436.33 451.65 440.52 C 446.90 451.09 438.09 459.03 429.41 466.39 C 422.71 472.00 417.36 479.04 410.51 484.49 C 406.64 487.66 402.89 490.98 398.85 493.93 C 395.21 496.58 392.16 500.10 388.00 501.96 C 379.51 505.58 370.08 506.97 362.21 512.00 L 348.40 512.00 C 358.44 507.23 369.16 504.23 379.66 500.67 C 383.40 499.48 386.54 497.03 389.26 494.27 C 393.75 489.66 399.49 486.56 404.17 482.17 C 411.08 475.39 418.72 469.41 425.26 462.25 C 431.12 455.78 438.74 450.62 442.55 442.53 C 446.42 435.17 451.09 428.26 455.32 421.10 C 455.06 420.49 454.55 419.28 454.30 418.67 C 456.96 415.19 460.09 412.04 462.27 408.21 C 464.29 404.67 466.38 401.17 468.92 397.97 C 469.27 398.58 469.63 399.19 469.99 399.81 C 471.26 395.33 474.02 391.49 475.43 387.08 C 479.00 376.99 484.90 367.92 488.63 357.90 C 491.30 349.05 493.82 340.16 495.85 331.14 C 499.21 319.60 499.55 307.51 501.24 295.68 Z" fill="#ededee" opacity="1.00" stroke="#ededee" stroke-width="0.25"/>
<path d="M 22.23 298.54 C 23.37 302.64 24.13 306.82 25.05 310.96 C 25.87 315.17 30.59 317.13 31.46 321.35 C 32.67 325.92 34.43 330.30 36.45 334.57 C 39.60 341.27 40.42 349.05 45.18 354.95 C 49.21 361.71 52.70 368.78 56.28 375.79 C 59.67 382.42 64.48 388.16 68.81 394.19 C 72.57 399.10 75.79 404.44 80.10 408.92 C 82.36 411.28 84.29 413.92 86.37 416.44 C 85.23 416.30 83.48 415.15 83.24 416.98 C 84.92 420.44 87.62 423.38 88.72 427.13 C 89.83 430.21 89.98 434.01 92.92 436.04 C 96.53 438.85 98.50 443.10 101.70 446.29 C 107.68 452.30 113.33 458.71 120.09 463.89 C 124.78 467.21 129.66 470.26 134.20 473.80 C 140.59 478.76 148.09 481.94 155.01 486.05 C 162.30 490.32 169.73 494.45 177.70 497.31 C 190.22 501.96 202.86 507.49 216.43 507.79 C 222.34 508.17 227.95 510.23 233.56 512.00 L 209.52 512.00 C 197.69 508.66 186.15 504.48 174.56 500.43 C 168.50 498.17 162.90 494.92 157.28 491.77 C 143.09 484.44 128.90 476.72 116.67 466.34 C 112.81 463.23 108.62 460.43 105.46 456.55 C 103.06 453.62 100.45 450.87 97.46 448.53 C 87.51 440.62 81.46 429.19 73.45 419.55 C 69.94 415.38 66.75 410.95 63.11 406.88 C 59.09 402.42 56.49 396.93 52.75 392.26 C 50.14 388.97 47.99 385.33 46.52 381.38 C 44.88 376.74 41.29 373.12 39.71 368.47 C 38.78 365.83 37.71 363.23 36.02 360.98 C 32.46 356.33 31.36 350.45 28.69 345.33 C 26.01 340.24 25.99 334.40 25.15 328.84 C 24.31 322.76 21.11 317.24 20.85 311.05 C 20.42 306.83 21.19 302.62 22.23 298.54 Z" fill="#c7cacc" opacity="1.00" stroke="#c7cacc" stroke-width="0.25"/>
<path d="M 32.32 317.78 C 31.51 315.33 32.04 312.80 33.01 310.49 C 35.72 319.78 38.10 329.18 41.77 338.15 C 49.86 360.93 61.82 382.26 76.80 401.21 C 87.69 414.77 100.37 426.73 113.15 438.49 C 112.84 438.91 112.22 439.75 111.91 440.18 C 108.23 436.32 103.72 433.43 99.18 430.71 C 95.20 425.69 91.20 420.67 86.37 416.44 C 84.29 413.92 82.36 411.28 80.10 408.92 C 75.79 404.44 72.57 399.10 68.81 394.19 C 64.48 388.16 59.67 382.42 56.28 375.79 C 52.70 368.78 49.21 361.71 45.18 354.95 C 41.46 342.37 35.59 330.51 32.32 317.78 Z" fill="#585e60" opacity="1.00" stroke="#585e60" stroke-width="0.25"/>
<path d="M 486.12 354.18 C 487.09 341.25 492.31 329.17 496.07 316.90 C 495.75 321.01 495.46 325.18 494.14 329.12 C 491.35 337.44 490.08 346.27 486.12 354.18 Z" fill="#2fa598" opacity="1.00" stroke="#2fa598" stroke-width="0.25"/>
<path d="M 0.00 326.87 C 4.89 336.14 1.08 347.96 7.09 356.84 C 10.48 362.70 11.21 369.69 14.80 375.48 C 15.41 375.24 16.02 375.01 16.63 374.79 C 20.52 386.05 26.10 396.64 31.98 406.97 C 35.21 412.62 39.93 417.23 43.03 422.95 C 45.55 427.61 49.64 431.06 52.78 435.25 C 55.30 438.45 57.48 441.90 59.83 445.23 C 62.00 448.32 65.12 450.55 67.40 453.55 C 73.01 461.78 80.29 468.72 87.85 475.14 C 93.10 480.61 99.60 484.67 104.54 490.46 C 109.69 493.58 113.20 498.72 118.55 501.53 C 123.55 504.51 126.90 509.71 132.38 512.00 L 0.00 512.00 L 0.00 326.87 Z" fill="#ffffff" opacity="1.00" stroke="#ffffff" stroke-width="0.25"/>
<path d="M 451.36 415.86 C 458.64 407.86 464.01 398.41 470.33 389.68 C 470.17 392.48 470.02 395.34 468.92 397.97 C 466.38 401.17 464.29 404.67 462.27 408.21 C 460.09 412.04 456.96 415.19 454.30 418.67 C 452.63 421.03 450.52 423.07 447.86 424.26 C 447.96 423.52 448.16 422.04 448.26 421.29 C 449.66 419.71 450.49 417.76 451.36 415.86 Z" fill="#2c4b4e" opacity="1.00" stroke="#2c4b4e" stroke-width="0.25"/>
<path d="M 83.24 416.98 C 83.48 415.15 85.23 416.30 86.37 416.44 C 91.20 420.67 95.20 425.69 99.18 430.71 C 101.49 434.09 104.61 436.75 107.98 439.03 C 112.47 441.92 114.29 447.28 118.34 450.62 C 122.92 454.39 126.34 459.49 131.64 462.37 C 141.36 468.12 149.37 476.32 159.36 481.67 C 168.45 487.91 179.96 488.83 189.18 494.82 C 197.38 500.27 207.44 500.96 216.76 503.25 C 222.20 504.52 227.30 506.97 232.77 508.17 C 238.42 509.38 244.24 508.77 249.97 509.00 C 262.34 509.60 274.88 511.93 287.21 509.60 C 295.18 508.03 303.36 508.14 311.39 507.03 C 318.00 505.57 324.45 503.41 331.08 502.03 C 339.23 500.37 346.84 496.93 354.82 494.69 C 362.08 492.60 368.25 488.10 375.15 485.19 C 382.80 481.95 388.90 476.13 396.21 472.28 C 402.83 468.76 408.16 463.37 414.52 459.45 C 420.14 455.38 424.60 449.92 430.49 446.17 C 429.57 449.06 428.22 451.86 425.77 453.77 C 418.27 460.27 410.71 466.71 403.24 473.24 C 396.90 479.03 388.85 482.63 383.07 489.08 C 377.14 495.63 367.92 496.36 359.98 498.88 C 348.18 502.58 336.35 506.59 323.96 507.83 C 320.78 507.88 318.22 509.76 316.16 512.00 L 233.56 512.00 C 227.95 510.23 222.34 508.17 216.43 507.79 C 202.86 507.49 190.22 501.96 177.70 497.31 C 169.73 494.45 162.30 490.32 155.01 486.05 C 148.09 481.94 140.59 478.76 134.20 473.80 C 129.66 470.26 124.78 467.21 120.09 463.89 C 113.33 458.71 107.68 452.30 101.70 446.29 C 98.50 443.10 96.53 438.85 92.92 436.04 C 89.98 434.01 89.83 430.21 88.72 427.13 C 87.62 423.38 84.92 420.44 83.24 416.98 Z" fill="#b7babc" opacity="1.00" stroke="#b7babc" stroke-width="0.25"/>
<path d="M 444.08 424.30 C 445.58 420.77 447.66 417.40 451.36 415.86 C 450.49 417.76 449.66 419.71 448.26 421.29 C 446.87 422.30 445.45 423.26 444.08 424.30 Z" fill="#359b90" opacity="1.00" stroke="#359b90" stroke-width="0.25"/>
<path d="M 454.30 418.67 C 454.55 419.28 455.06 420.49 455.32 421.10 C 451.09 428.26 446.42 435.17 442.55 442.53 C 438.74 450.62 431.12 455.78 425.26 462.25 C 418.72 469.41 411.08 475.39 404.17 482.17 C 399.49 486.56 393.75 489.66 389.26 494.27 C 386.54 497.03 383.40 499.48 379.66 500.67 C 369.16 504.23 358.44 507.23 348.40 512.00 L 329.48 512.00 C 338.93 508.50 348.89 506.76 358.38 503.37 C 364.86 501.08 371.70 499.81 377.99 496.96 C 384.16 494.17 388.21 488.46 393.81 484.83 C 397.40 482.49 400.76 479.82 403.84 476.84 C 410.01 470.99 416.95 465.98 422.67 459.67 C 427.74 454.07 433.97 449.53 438.14 443.14 C 441.53 437.63 447.64 433.28 447.52 426.20 C 447.60 425.72 447.77 424.75 447.86 424.26 C 450.52 423.07 452.63 421.03 454.30 418.67 Z" fill="#dcddde" opacity="1.00" stroke="#dcddde" stroke-width="0.25"/>
<path d="M 444.08 424.30 C 445.45 423.26 446.87 422.30 448.26 421.29 C 448.16 422.04 447.96 423.52 447.86 424.26 C 447.77 424.75 447.60 425.72 447.52 426.20 C 443.04 430.76 438.55 435.30 434.19 439.97 C 429.55 442.99 426.21 447.49 421.89 450.89 C 413.01 458.10 404.38 465.74 394.36 471.35 C 386.98 476.28 379.08 480.33 371.07 484.11 C 362.66 488.95 353.40 491.94 344.36 495.32 C 337.98 497.76 331.15 498.62 324.66 500.70 C 317.34 502.97 309.76 504.31 302.17 505.34 C 289.49 506.77 276.70 508.15 263.94 506.89 C 254.97 506.56 246.08 505.20 237.24 503.72 C 231.20 502.54 225.29 500.73 219.22 499.73 C 218.13 499.21 217.06 498.66 216.00 498.12 C 216.78 498.08 218.34 498.00 219.12 497.96 C 225.65 499.22 232.30 499.75 238.79 501.25 C 245.87 502.83 253.10 503.63 260.34 503.80 C 273.21 505.20 286.22 504.40 299.03 502.78 C 332.57 498.62 364.65 485.98 393.40 468.46 C 401.35 462.85 409.80 457.81 416.78 450.97 C 425.84 444.01 434.87 436.55 441.36 427.04 C 442.27 426.13 443.18 425.21 444.08 424.30 Z" fill="#062829" opacity="1.00" stroke="#062829" stroke-width="0.25"/>
<path d="M 434.19 439.97 C 438.55 435.30 443.04 430.76 447.52 426.20 C 447.64 433.28 441.53 437.63 438.14 443.14 C 433.97 449.53 427.74 454.07 422.67 459.67 C 416.95 465.98 410.01 470.99 403.84 476.84 C 400.76 479.82 397.40 482.49 393.81 484.83 C 388.21 488.46 384.16 494.17 377.99 496.96 C 371.70 499.81 364.86 501.08 358.38 503.37 C 348.89 506.76 338.93 508.50 329.48 512.00 L 316.16 512.00 C 318.22 509.76 320.78 507.88 323.96 507.83 C 336.35 506.59 348.18 502.58 359.98 498.88 C 367.92 496.36 377.14 495.63 383.07 489.08 C 388.85 482.63 396.90 479.03 403.24 473.24 C 410.71 466.71 418.27 460.27 425.77 453.77 C 428.22 451.86 429.57 449.06 430.49 446.17 C 431.74 444.11 432.96 442.03 434.19 439.97 Z" fill="#cbcdcf" opacity="1.00" stroke="#cbcdcf" stroke-width="0.25"/>
<path d="M 430.41 436.42 C 434.11 433.33 436.74 428.93 441.36 427.04 C 434.87 436.55 425.84 444.01 416.78 450.97 C 420.07 445.06 425.38 440.77 430.41 436.42 Z" fill="#3ba59a" opacity="1.00" stroke="#3ba59a" stroke-width="0.25"/>
<path d="M 99.18 430.71 C 103.72 433.43 108.23 436.32 111.91 440.18 C 114.40 443.60 117.25 446.79 120.68 449.30 C 130.07 456.29 139.02 463.92 149.09 469.93 C 155.54 473.89 162.31 477.30 168.65 481.44 C 174.93 485.60 182.46 487.16 188.96 490.89 C 200.12 498.01 213.64 499.49 225.88 504.04 C 233.59 507.15 242.16 506.24 249.97 509.00 C 244.24 508.77 238.42 509.38 232.77 508.17 C 227.30 506.97 222.20 504.52 216.76 503.25 C 207.44 500.96 197.38 500.27 189.18 494.82 C 179.96 488.83 168.45 487.91 159.36 481.67 C 149.37 476.32 141.36 468.12 131.64 462.37 C 126.34 459.49 122.92 454.39 118.34 450.62 C 114.29 447.28 112.47 441.92 107.98 439.03 C 104.61 436.75 101.49 434.09 99.18 430.71 Z" fill="#9da4a6" opacity="1.00" stroke="#9da4a6" stroke-width="0.25"/>
<path d="M 111.91 440.18 C 112.22 439.75 112.84 438.91 113.15 438.49 C 115.34 440.39 117.69 442.11 119.99 443.89 C 124.45 450.50 131.35 454.71 137.63 459.36 C 142.92 463.09 147.88 467.34 153.62 470.38 C 158.15 472.79 162.58 475.39 167.03 477.93 C 174.98 482.41 183.65 485.35 191.97 489.05 C 191.23 489.52 190.49 489.98 189.74 490.44 L 188.96 490.89 C 182.46 487.16 174.93 485.60 168.65 481.44 C 162.31 477.30 155.54 473.89 149.09 469.93 C 139.02 463.92 130.07 456.29 120.68 449.30 C 117.25 446.79 114.40 443.60 111.91 440.18 Z" fill="#4d6c6d" opacity="1.00" stroke="#4d6c6d" stroke-width="0.25"/>
<path d="M 421.89 450.89 C 426.21 447.49 429.55 442.99 434.19 439.97 C 432.96 442.03 431.74 444.11 430.49 446.17 C 424.60 449.92 420.14 455.38 414.52 459.45 C 408.16 463.37 402.83 468.76 396.21 472.28 C 388.90 476.13 382.80 481.95 375.15 485.19 C 368.25 488.10 362.08 492.60 354.82 494.69 C 346.84 496.93 339.23 500.37 331.08 502.03 C 324.45 503.41 318.00 505.57 311.39 507.03 C 303.36 508.14 295.18 508.03 287.21 509.60 C 274.88 511.93 262.34 509.60 249.97 509.00 C 242.16 506.24 233.59 507.15 225.88 504.04 C 213.64 499.49 200.12 498.01 188.96 490.89 L 189.74 490.44 C 199.71 493.12 208.69 499.14 219.22 499.73 C 225.29 500.73 231.20 502.54 237.24 503.72 C 246.08 505.20 254.97 506.56 263.94 506.89 C 276.70 508.15 289.49 506.77 302.17 505.34 C 309.76 504.31 317.34 502.97 324.66 500.70 C 331.15 498.62 337.98 497.76 344.36 495.32 C 353.40 491.94 362.66 488.95 371.07 484.11 C 379.08 480.33 386.98 476.28 394.36 471.35 C 404.38 465.74 413.01 458.10 421.89 450.89 Z" fill="#6a7477" opacity="1.00" stroke="#6a7477" stroke-width="0.25"/>
<path d="M 119.99 443.89 C 129.45 450.31 138.77 457.00 148.98 462.22 C 148.54 462.57 147.64 463.26 147.20 463.61 C 152.93 468.20 159.67 471.23 165.92 475.01 C 174.07 479.60 183.06 482.40 191.43 486.56 C 198.07 490.00 205.77 490.95 212.04 495.19 C 205.08 494.18 198.37 491.93 191.97 489.05 C 183.65 485.35 174.98 482.41 167.03 477.93 C 162.58 475.39 158.15 472.79 153.62 470.38 C 147.88 467.34 142.92 463.09 137.63 459.36 C 131.35 454.71 124.45 450.50 119.99 443.89 Z" fill="#2ea295" opacity="1.00" stroke="#2ea295" stroke-width="0.25"/>
<path d="M 148.98 462.22 C 163.49 470.73 179.45 476.34 195.45 481.33 C 203.96 483.96 212.72 485.67 221.45 487.46 C 219.65 489.56 217.86 491.69 216.13 493.85 C 222.59 497.04 229.86 497.58 236.82 499.02 C 244.65 500.63 253.09 499.93 260.34 503.80 C 253.10 503.63 245.87 502.83 238.79 501.25 C 232.30 499.75 225.65 499.22 219.12 497.96 C 216.74 497.09 214.39 496.12 212.04 495.19 C 205.77 490.95 198.07 490.00 191.43 486.56 C 183.06 482.40 174.07 479.60 165.92 475.01 C 159.67 471.23 152.93 468.20 147.20 463.61 C 147.64 463.26 148.54 462.57 148.98 462.22 Z" fill="#0db09f" opacity="1.00" stroke="#0db09f" stroke-width="0.25"/>
<path d="M 189.74 490.44 C 190.49 489.98 191.23 489.52 191.97 489.05 C 198.37 491.93 205.08 494.18 212.04 495.19 C 214.39 496.12 216.74 497.09 219.12 497.96 C 218.34 498.00 216.78 498.08 216.00 498.12 C 217.06 498.66 218.13 499.21 219.22 499.73 C 208.69 499.14 199.71 493.12 189.74 490.44 Z" fill="#324d4f" opacity="1.00" stroke="#324d4f" stroke-width="0.25"/>
</g>
</svg>
